<svg width="960" height="640" viewBox="0 0 960 640" fill="none" xmlns="http://www.w3.org/2000/svg">
  <rect width="960" height="640" rx="40" fill="#F7EEDC"/>
  <circle cx="798" cy="136" r="64" fill="#E0B14B"/>
  <path d="M68 520C176 440 291 419 410 448C522 475 626 549 742 545C809 543 872 518 960 485V640H68V520Z" fill="#41745D"/>
  <rect x="210" y="214" width="155" height="185" rx="22" fill="#FFF9EF"/>
  <path d="M287 254C311 254 330 274 330 298C330 344 287 366 287 366C287 366 244 344 244 298C244 274 263 254 287 254Z" fill="#C95E43"/>
  <rect x="419" y="240" width="326" height="140" rx="24" fill="#FFF9EF"/>
  <path d="M461 286H704" stroke="#D7C4AA" stroke-width="12" stroke-linecap="round"/>
  <path d="M461 323H656" stroke="#D7C4AA" stroke-width="12" stroke-linecap="round"/>
  <rect x="418" y="415" width="160" height="72" rx="22" fill="#C95E43"/>
  <text x="498" y="460" fill="#FFF9EF" font-family="Arial, sans-serif" font-size="28" font-weight="700" text-anchor="middle">DONATE</text>
  <circle cx="232" cy="500" r="34" fill="#704126"/>
  <circle cx="318" cy="500" r="34" fill="#5D3420"/>
  <circle cx="404" cy="500" r="34" fill="#704126"/>
</svg>